<?xml version="1.0" standalone="no"?>
<!DOCTYPE svg PUBLIC "-//W3C//DTD SVG 20010904//EN"
 "http://www.w3.org/TR/2001/REC-SVG-20010904/DTD/svg10.dtd">
<svg version="1.0" xmlns="http://www.w3.org/2000/svg"
 width="512.000000pt" height="512.000000pt" viewBox="0 0 512.000000 512.000000"
 preserveAspectRatio="xMidYMid meet">
<metadata>
Created by potrace 1.14, written by Peter Selinger 2001-2017
</metadata>
<g transform="translate(0.000000,512.000000) scale(0.100000,-0.100000)"
fill="#000000" stroke="none">
<path d="M2468 4813 c-15 -19 -34 -29 -58 -31 -64 -5 -185 -23 -225 -34 -22
-5 -51 -12 -65 -15 -14 -2 -79 -22 -145 -44 -379 -128 -726 -395 -947 -728
-117 -175 -217 -418 -243 -586 -2 -11 -7 -45 -12 -75 -10 -69 -11 -338 -1
-405 39 -255 137 -487 290 -685 57 -73 188 -206 263 -267 177 -144 431 -267
672 -327 96 -24 120 -29 215 -42 l47 -6 -41 -52 c-23 -28 -53 -77 -69 -110
-38 -81 -36 -177 7 -255 34 -64 114 -132 202 -174 35 -16 60 -33 55 -38 -5 -5
-51 -11 -103 -14 -52 -3 -111 -7 -130 -10 -19 -2 -57 -7 -85 -11 -27 -4 -52
-7 -55 -7 -3 0 -50 -15 -105 -34 -54 -18 -139 -40 -187 -48 -48 -9 -108 -24
-132 -35 -24 -10 -59 -21 -78 -24 -18 -4 -76 -15 -128 -25 -52 -10 -104 -17
-115 -16 -11 2 -44 6 -74 9 -29 4 -57 8 -61 11 -13 8 -11 102 2 113 7 5 32 12
56 16 63 8 176 71 223 124 62 71 81 122 85 233 5 121 -17 203 -79 297 -48 72
-228 258 -258 267 -11 4 -19 11 -19 16 0 59 -312 -194 -388 -314 -73 -118 -85
-158 -80 -271 8 -168 56 -254 178 -315 30 -16 73 -34 95 -41 22 -7 43 -15 47
-19 10 -9 20 -121 11 -122 -4 0 -17 -2 -28 -5 -49 -10 -119 -11 -156 -3 -71
16 -100 -2 -104 -68 -2 -23 5 -27 37 -24 9 1 27 -5 40 -13 24 -15 95 -15 120
0 7 5 121 9 253 9 l240 1 110 38 c61 20 120 44 132 52 12 7 35 14 50 14 27 -1
27 -2 -14 -26 -23 -14 -45 -34 -48 -44 -9 -27 9 -55 36 -57 23 -2 132 71 213
141 38 33 74 47 163 61 l42 7 -16 -33 c-18 -37 -21 -72 -9 -139 18 -106 16
-162 -8 -194 -56 -76 -59 -140 -8 -142 27 -1 34 6 78 84 47 84 48 88 45 157
-13 254 0 277 154 279 43 1 51 -2 62 -24 8 -16 11 -44 8 -78 -6 -62 7 -95 38
-90 16 2 25 16 37 58 14 47 15 61 3 100 -7 25 -13 46 -13 46 0 6 151 -9 171
-17 14 -6 36 -28 48 -49 18 -32 21 -50 17 -97 -3 -32 -8 -99 -12 -148 l-6 -90
67 -73 c52 -56 73 -72 95 -72 28 0 40 15 40 49 0 9 -22 43 -50 76 -29 34 -51
70 -51 85 -3 49 3 106 15 160 11 46 11 63 0 100 -8 25 -14 46 -14 47 0 3 135
-37 176 -52 35 -13 43 -22 53 -58 15 -50 66 -107 96 -107 12 0 30 9 39 19 15
16 16 23 5 42 -6 13 -21 31 -33 40 -12 10 -18 21 -14 25 9 8 54 -11 233 -97
148 -71 185 -78 287 -54 38 10 95 18 126 19 l57 1 30 -60 c17 -33 32 -60 35
-60 3 0 16 8 29 18 l25 17 -22 42 c-27 53 -13 61 49 29 28 -15 65 -23 117 -25
l76 -4 -27 20 c-19 13 -26 26 -22 38 11 34 -48 58 -190 76 -27 4 -53 12 -57
18 -8 11 -14 95 -9 124 2 12 96 82 110 82 6 0 21 -16 32 -35 12 -19 28 -35 36
-35 13 0 13 3 -2 26 l-16 25 24 -16 c22 -14 25 -14 30 0 4 8 4 40 1 70 -2 30
-1 55 2 55 15 0 75 -43 93 -67 18 -22 50 -25 36 -3 -3 5 0 20 7 34 10 22 8 31
-8 54 -27 36 -35 60 -23 67 5 4 3 15 -5 27 -14 20 -12 25 33 77 73 85 74 100
7 103 -21 1 -43 9 -53 20 -16 18 -15 19 28 13 24 -4 68 -11 98 -16 30 -5 56
-7 58 -5 8 8 -30 29 -91 50 -35 13 -61 27 -58 32 21 30 77 56 132 61 33 3 60
9 60 12 0 13 -56 39 -120 56 -36 9 -72 19 -79 21 -9 3 6 15 35 28 77 36 103
82 32 57 -45 -16 -138 -25 -118 -12 8 5 18 7 24 4 5 -4 7 0 4 9 -4 9 11 35 39
67 48 55 49 63 2 29 -30 -22 -119 -34 -119 -16 0 5 -7 8 -15 8 -8 0 -15 -4
-15 -10 0 -5 -15 -10 -32 -9 -31 1 -31 1 -8 9 l25 7 -31 14 c-17 8 -32 19 -33
24 -4 16 -11 19 -11 5 0 -7 -3 -11 -6 -7 -3 3 6 26 21 51 35 60 29 74 -18 35
-20 -17 -37 -25 -37 -19 0 10 -4 9 -15 0 -8 -7 -15 -8 -15 -3 0 5 -6 18 -14
28 -13 17 -15 17 -50 -10 -30 -23 -34 -30 -24 -43 11 -13 10 -14 -9 -8 -16 5
-23 2 -26 -11 -4 -17 -5 -17 -6 0 0 9 -6 17 -11 17 -12 0 -22 8 -82 63 -23 20
-43 35 -45 33 -2 -2 0 -22 5 -44 8 -33 7 -39 -4 -35 -20 7 -17 -4 7 -30 l20
-22 -20 -3 c-23 -4 -28 -17 -8 -26 6 -3 -3 -3 -20 0 -21 3 -33 1 -33 -5 0 -6
5 -11 12 -11 17 0 1 -12 -19 -14 -41 -5 -94 -19 -99 -27 -3 -5 18 -9 47 -9
l53 0 -61 -37 c-79 -49 -132 -93 -113 -93 8 1 26 7 40 15 30 17 40 18 40 5 0
-5 -9 -10 -20 -10 -11 0 -20 -4 -20 -10 0 -5 5 -10 11 -10 8 0 8 -4 0 -14 -10
-11 -19 -12 -42 -4 -22 8 -34 7 -42 -1 -8 -8 -7 -11 4 -11 7 -1 27 -11 42 -24
l29 -23 -45 4 c-26 3 -48 0 -51 -6 -5 -7 2 -11 15 -11 18 0 13 -6 -23 -30 -25
-17 -52 -38 -60 -47 -12 -15 -10 -16 12 -10 14 3 45 9 70 13 42 6 44 5 25 -10
-19 -15 -18 -15 25 -16 25 -1 53 -3 62 -5 89 -17 96 -17 117 6 26 28 39 18 17
-13 -14 -19 -26 -23 -74 -25 -31 -1 -73 -3 -92 -5 -19 -3 -48 -5 -63 -6 -43
-3 -24 -18 25 -20 60 -3 98 -12 98 -23 0 -5 -9 -9 -19 -9 -26 0 -75 -19 -68
-26 6 -6 31 -12 67 -14 17 -1 3 -9 -42 -24 -79 -25 -94 -36 -48 -36 32 0 33
-1 27 -37 l-6 -36 39 38 c22 22 40 37 40 34 0 -2 -13 -36 -30 -74 -29 -70 -37
-105 -22 -105 4 0 15 15 25 32 10 18 26 44 37 58 18 24 20 24 33 6 13 -18 15
-17 58 10 24 16 50 35 57 41 7 7 19 13 26 13 8 0 19 7 26 15 7 9 15 13 17 11
6 -6 -38 -86 -48 -86 -12 0 -18 -26 -9 -40 6 -10 15 -8 40 10 l31 22 37 -29
c43 -35 52 -61 57 -170 3 -46 7 -94 9 -108 6 -32 -13 -42 -84 -44 -30 -1 -81
-5 -113 -10 -120 -16 -164 -4 -265 71 -30 22 -59 41 -65 42 -7 1 -39 8 -72 15
-33 8 -64 14 -70 16 -5 1 -28 5 -50 10 -22 4 -51 16 -65 25 -34 24 -231 72
-306 75 -34 1 -66 5 -72 9 -5 3 -40 8 -78 12 -101 9 -109 18 -44 47 122 54
209 143 234 238 25 99 8 181 -59 279 l-53 77 60 7 c271 28 602 153 828 314
110 78 286 248 353 342 26 36 51 70 55 75 20 25 91 158 124 231 36 79 91 248
102 315 23 137 28 185 29 297 2 175 -5 236 -44 391 -34 139 -78 245 -169 409
-44 79 -177 246 -256 323 -196 188 -393 313 -634 403 -176 65 -300 92 -518
111 -42 3 -58 9 -73 30 -26 32 -42 32 -71 -2z m1529 -3139 c-3 -3 -12 -4 -19
-1 -8 3 -5 6 6 6 11 1 17 -2 13 -5z m143 -194 c0 -5 -2 -10 -4 -10 -3 0 -8 5
-11 10 -3 6 -1 10 4 10 6 0 11 -4 11 -10z m-5 -90 c3 -6 -1 -7 -9 -4 -18 7
-21 14 -7 14 6 0 13 -4 16 -10z m31 -48 c-22 -5 -30 3 -21 18 5 8 11 7 22 -2
15 -12 14 -13 -1 -16z m61 -134 c-3 -8 -6 -5 -6 6 -1 11 2 17 5 13 3 -3 4 -12
1 -19z m-477 -173 c-7 -9 -15 -13 -17 -11 -7 7 7 26 19 26 6 0 6 -6 -2 -15z"/>
<path d="M4192 1107 c10 -8 15 -17 11 -20 -7 -8 11 -14 54 -21 29 -4 31 -2 30
22 -2 24 -6 26 -57 29 -48 3 -53 1 -38 -10z"/>
</g>
</svg>
