<?xml version="1.0" encoding="UTF-8"?><svg id="Layer_6" xmlns="http://www.w3.org/2000/svg" viewBox="0 0 55.45 57"><defs><style>.cls-1{fill:#8cc63f;}.cls-1,.cls-2{stroke-width:0px;}.cls-2{fill:#e6fdff;}</style></defs><path class="cls-2" d="m54.3,17.84L28.2,1.64c-.29-.18-.66-.18-.95,0L1.15,17.84c-.26.16-.42.45-.42.76v36c0,.5.4.9.9.9h52.2c.5,0,.9-.4.9-.9V18.6c0-.31-.16-.6-.42-.76Zm-13.39,35.86H14.54c-9.45-7.28-11.21-20.84-3.93-30.29,7.28-9.45,20.84-11.21,30.29-3.93,2.89,2.22,5.16,5.14,6.62,8.48,3.96,9.08,1.23,19.69-6.61,25.74ZM26.82,13.58c-2.97.11-5.9.78-8.61,1.99l8.61-10.3v8.32Zm1.8-8.35l8.61,10.34c-2.72-1.21-5.64-1.88-8.61-1.99V5.23Zm-14.95,12.48H4.68L23.34,6.1l-9.67,11.6Zm-1.91,1.8c-2.19,2.04-3.97,4.49-5.24,7.2H2.52v-7.2h9.24Zm-6,9c-.86,2.31-1.34,4.74-1.44,7.2h-1.8v-7.2h3.24Zm-1.44,9c.1,2.46.58,4.89,1.44,7.2h-3.24v-7.2h1.8Zm46.8,0h1.8v7.2h-3.24c.86-2.31,1.34-4.74,1.44-7.2Zm0-1.8c-.09-2.46-.56-4.89-1.41-7.2h3.21v7.2h-1.8Zm-2.2-9c-1.27-2.71-3.05-5.16-5.24-7.2h9.24v7.2h-4Zm-7.39-9l-9.67-11.6,18.68,11.6h-9.02ZM2.52,46.5h4c1.27,2.71,3.05,5.16,5.24,7.2H2.52v-7.2Zm41.16,7.2c2.19-2.04,3.97-4.49,5.24-7.2h4v7.2h-9.24Z"/><path class="cls-1" d="m28.62,53.7v-5.67c.6.65,1.34,1.16,2.17,1.48l.22.08.61-1.69-.22-.07c-1.57-.64-2.65-2.11-2.79-3.81l2.51,1.62,1.3-.24-2.77-2.9,7.65-1.58-.13-.8-6.49.49,5.16-6.4-1.27-.21-5.96,6.21-.9-7.2h0l-.9,7.2-5.96-6.21-1.3.24,5.16,6.4-6.49-.49-.13.8,7.65,1.58-2.77,2.9,1.3.24,2.55-1.65c-.13,1.68-1.19,3.15-2.74,3.8l-.22.08.61,1.69.23-.09c.81-.32,1.53-.82,2.12-1.46v5.66h1.8Z"/><path class="cls-1" d="m48.64,38.15c-.08-.39-.4-.69-.8-.73l-8.29-.8c-.49-.05-.99-.05-1.48,0v-.05l5.61-10c.2-.36.14-.81-.16-1.1-.3-.28-.75-.33-1.1-.12l-9.55,5.83c-.54.32-1.04.7-1.5,1.12.03-1.18-.07-2.35-.29-3.51l-2.44-12.96c0-.5-.41-.91-.91-.91s-.91.41-.91.91l-2.46,12.96c-.22,1.16-.3,2.33-.26,3.51-.45-.42-.95-.8-1.47-1.12l-9.59-5.88c-.35-.21-.8-.17-1.1.12-.3.29-.37.74-.16,1.1l5.61,10v.05c-.49-.04-.99-.04-1.48,0l-8.29.81c-.4.04-.72.34-.8.73-.08.39.1.78.45.97l7.34,4.1c1.64.92,3.52,1.31,5.39,1.1l-2.73,5.84c-.22.45-.03,1,.43,1.21.22.11.48.12.71.03l4.2-1.59-.64-1.71-2.1.8,2.04-4.32c.19-.38.42-.73.69-1.05.33-.38.29-.95-.09-1.28-.25-.22-.61-.28-.92-.16-1.99.76-4.21.6-6.07-.45l-4.8-2.73,5.39-.53c1.07-.1,2.15.04,3.16.41.48.13.98-.15,1.12-.64.09-.34-.02-.7-.28-.93-.53-.46-.89-1.08-1.23-1.69l-3.86-6.9,6.59,4.05c1.32.82,2.37,2.01,3.01,3.42.18.47.71.7,1.18.51.45-.18.68-.67.53-1.13-.56-2.08-.63-4.25-.23-6.37l1.64-8.26,1.59,8.3c.41,2.11.33,4.29-.23,6.37-.16.48.1.99.58,1.15.46.15.95-.08,1.13-.53.64-1.41,1.69-2.6,3.01-3.42l6.59-4.05-3.75,6.7c-.29.52-.94,1.52-1.38,1.92-.39.36-.4.96-.02,1.33.25.24.61.32.94.21,1.01-.37,2.09-.51,3.16-.41l5.39.53-4.8,2.73c-1.85,1.05-4.08,1.21-6.07.45-.47-.18-.99.06-1.17.53-.12.31-.06.67.16.92.27.32.51.68.69,1.05l2.04,4.32-2.1-.8-.64,1.71,4.2,1.59c.1.04.21.06.32.05.5,0,.91-.41.91-.91,0-.13-.03-.27-.09-.39l-2.73-5.84c1.87.21,3.76-.18,5.39-1.1l7.34-4.1c.34-.2.52-.59.44-.98Z"/></svg>