<?xml version="1.0" encoding="UTF-8"?><svg id="Hybrid" xmlns="http://www.w3.org/2000/svg" viewBox="0 0 55.45 57"><defs><style>.cls-1{fill:#6d7a57;}.cls-1,.cls-2{stroke-width:0px;}.cls-2{fill:#879e63;}</style></defs><path class="cls-1" d="m27.48,47c0,.32,0,.64,0,.95-.02.84-.08,1.68-.07,2.52h.74c0-1.08-.02-2.76-.02-3.83l.24-.13c1.2,2.16,2.29,4.35,4.03,6.18,1.77,1.85,4.1,2.65,6.08,4.22-.73-1.86-1.57-3.67-2.53-5.42-1.08-1.51-2.27-2.94-3.56-4.29l.15-.19c.24.17.51.32.78.44.75.26,1.52.47,2.3.62.81.03,1.62.1,2.42.22.76.23,1.6-.2,2.31.35.07.06.41-.23.71-.42.48-.05,1.13,1.04,1.63,0,.56-.25,1.33.81,1.63-.41.59-.11,1.42.79,1.71-.34.53-.03,1.06-.1,1.58-.21,1.01-.29,1.98-.68,2.99-.99.59-.18,1.21-.26,2.08-.44-1.12-.4-.91-.37-2.43-.69-.71-.15-1.37-.45-2.03-.75-.59-.27-1.76-.23-1.99-.68-.52-1.01-1.18-.38-1.82-.43-.27-1.11-1.38-.15-1.57-.45-.64-1.02-1.25.03-1.81-.28-.26-.17-.57-.26-.88-.25-.28.03-.57.34-.81.28-1.14-.37-2.38-.31-3.49.16.16-.32.19-.53.3-.6.9-.54,1.84-1.02,2.72-1.59.2-.13.23-.51.35-.78,1.67-.24,2.26-.73,1.95-1.59.66-.29,1.31-.57,2.02-.88l-.31-.62,2.45-1.08-.65-.68,2.62-1.44-.68-.58,2.18-1.48-.79-.57,2.39-1.78-.97-.52c.71-.89,1.64-1.35,1.93-2.68.31-1.45,1.56-2.7,2.41-4.03.16-.25.35-.48.51-.73.31-.5.59-1,.89-1.51l-.24-.21c-1.2.8-2.4,1.6-3.61,2.4-.22.14-.55.44-.65.37-.71-.46-1.05.23-1.52.45-.21.09-.46.4-.57.35-.98-.48-1.28.45-1.8.86-.24.28-.44.6-.58.94l-.68-1.19-1.71,2.07-.5-.79-1.7,2.23-.48-.84-1.64,2.67-.51-.89-1.34,2.49-.57-.36c-.22.42-.42.76-.59,1.11-.17.35-.31.7-.48,1.08-.72-.61-1.08-.2-1.69,1.78l-.22-.19-1.23,1.34c.06-.99.25-1.97.57-2.9.19-.59.46-1.14-.29-1.29l1.25-3.1h-1.16l1.03-2.52-1.07-.13c.59-1.04,1.45-1.93,1.04-3.27l-.9.26,1.03-3.69-1.29.36.68-3.34-1.25.34.41-3.69-1.26.52c-.16-1.27.64-2.71-.85-3.59-.19-.75-.15-1.91-.65-2.25-.79-.52-.64-1.13-.75-1.74-.23-1.79-.79-3.52-1.66-5.1"/><path class="cls-2" d="m28.16,50.28s-.04,0-.06.01c0,0,0,.02-.1.02v3.59l-.17.64h0s-.48,0-.48,0v-4.17s-.02-.04-.04-.04c0,0-.02,0-.02,0-.65.46-6.1,4.3-7.8,6.08-.02.02-.04.02-.06,0-.01-.01-.02-.03,0-.04.37-1.02,2.38-5.95,6.73-6.63.05,0,.1-.07,0-.11-.98-.12-4.1-.37-6.17.59-.02,0-.04,0-.05-.01-.11-.12-.2-.27-.26-.43,0-.04-.03-.05-.06-.03-.38.34-.85.56-1.35.63-.02,0-.04-.01-.04-.03-.04-.14-.07-.29-.08-.44,0-.02-.02-.04-.04-.04-.01,0-.02,0-.03.01-.42.38-.97.58-1.53.55-.02,0-.04-.02-.04-.04,0-.16.06-.32.14-.46-.46.47-1.1.72-1.75.7-.02,0-.04-.02-.04-.04-.02-.13-.06-.57.02-.6-.41.49-.99.81-1.63.87-.02,0-.04,0-.05-.03-.07-.18-.05-.37.03-.54-.49.48-1.13.78-1.81.85-.02,0-.04-.01-.04-.03-.02-.14-.1-.66,0-.66-.47.35-1.03.57-1.61.65-.02,0-.04-.02-.04-.04,0,0,0,0,0,0,0-.14.07-.62.04-.57-.35.37-.82.61-1.32.68-.02,0-.04-.02-.04-.04,0,0,0,0,0,0,.03-.16.21-.67.17-.63-.34.36-.79.61-1.28.71-.02,0-.04-.01-.05-.04,0,0,0,0,0-.01l.05-.38c-.86.6-1.87.95-2.92,1.01-.02,0-.04-.02-.04-.04,0,0,0-.02,0-.02.16-.24.84-1.07,2.67-1.71l.03-.03c.02-.14.18-.9,1.34-.8.02,0,.04-.01.05-.04,0,0,0,0,0,0l-.05-.48s0-.03.02-.04c.34-.2.75-.25,1.14-.13.02.01.04,0,.06-.02,0-.01,0-.02,0-.03l-.15-.41c-.02-.06,0-.08.01-.09.53-.14,1.09-.18,1.64-.12.02,0,.04-.01.05-.03,0,0,0-.01,0-.02l-.16-.43c-.02-.06,0-.09.02-.09.55-.07,1.11-.06,1.65.01.05.02.11-.01.12-.07,0-.01,0-.03,0-.04-.02-.17-.07-.42-.16-.42.63-.24,1.32-.27,1.97-.1.53.27-.09-.2-.34-.38-.02-.01-.02-.04,0-.06,0-.01.02-.02.03-.02.5-.01.99.07,1.46.23.58.27-.09-.42-.09-.42.55.08,1.09.21,1.61.4,0,0-.22-.45-.33-.45s.55-.21,1.94.51c0,0-.15-.45-.24-.48.67.03,1.31.28,1.82.71,0,0,0-.39-.1-.46,0,0,5.43,2.48,6,2.94,0,0,.13.03.09-.12-.37-.21-5.5-2.82-5.5-2.82l.22-.18s.36-.18-1.5-.21c-.5-.04-.98-.23-1.37-.54,0,0-.13-.27.4-.25,0,0,.04-.19-.24-.19s-1.74.09-2.04-.43c0,0-.09-.31.54-.3,0,0,.15-.21-.15-.25s-2.16.03-2.43-.64c0,0-.22-.4.75-.3,0,0,.12-.21-.13-.21s-2.25,0-2.52-.64c0,0-.12-.48.75-.31.02-.12-.05-.23-.17-.25-.02,0-.05,0-.07,0-.28,0-2.04.19-2.68-.55,0,0-.37-.55.89-.51,0,0,.16-.21-.36-.21s-1.97.1-2.58-.63c0,0-.25-.42.67-.45,0,0,.22-.16-.46-.18-.79,0-1.54-.34-2.07-.92,0,0-.22-.39.73-.19,0,0,.13-.21-.39-.21s-1.65-.43-1.7-.67.72-.15.72-.15c0,0,.09-.24-.28-.24s-1.42-.25-1.64-.86-3.78-1.85-3.78-1.85c0,0,1.59-.51,4.38.82.12-.14.14-.34.04-.49.61,0,1.19.25,1.59.7,0,0,.4.25.31-.43,0,0,.28-.28,1.3.63,0,0,.48.18.3-.42,0,0,.43-.28,2,1.16,0,0,.15.09.18-.21.01-.21-.01-.41-.07-.61.74.27,1.38.74,1.86,1.36,0,0,.28.19.22-.3s1.91,1.25,1.91,1.25c0,0,.31.18.22-.42s1.42,1.06,1.42,1.06c0,0,.15.16.1-.18s.98.63,1.13,1.1.15-.15.15-.15v-.28s.73-.16,1.93,1.85c0,0,.16.18.21-.07.03-.15.03-.31,0-.46,0,0,1.47,1.17,1.54,1.91,0,0,.16.13.19-.01.02-.1.01-.21-.01-.31,0,0,.96.07,1.24,1.96,0,0,.18.06.25-.01s3.99,5.24,3.99,5.24c0,0,.18.05.15-.12l-3.16-4.77s-.06-.25.16-.2-1.89-2.24-1.89-2.24c0,0,.52-.33-.12-.73-.89-.74-1.74-1.53-2.53-2.37,0,0-.06-.42.44-.24,0,0,.32,0-.13-.37s-1.84-1.77-1.84-1.77c0,0-.14-.45.45-.35,0,0,.44.09.3-.18s-2.24-2.34-2.24-2.34c0,0-.02-.35.46-.22.48.13.18-.16.18-.16l-2.16-2.12s-.2-.52.47-.43.09-.22.09-.22l-2.8-2.72s-.06-.45.54-.49-1.7-1.97-1.7-1.97c0,0-.16-.54.59-.53s-2.05-2.64-2.05-2.64c0,0-.11-.45.5-.41s-1.33-1.81-1.33-1.81c0,0-.11-.39.42-.35s-1.39-1.87-1.39-1.87c0,0-.04-.34.38-.29s-3.27-4.5-3.27-4.5c0,0-.04-.46.39-.33.43.13,3.68,3.7,3.68,3.7.07-.07.09-.16.06-.25-.04-.17.4-.06.34.26s1.44,1.59,1.44,1.59c.14-.07.21-.24.15-.39-.08-.29,1.09.14,1.42,1.59,0,0,.1.16.17-.06s.03-.18.03-.18c0,0,1.02-.38,1.93,2.59,0,0,.14.19.17-.35l-.03-.34s1.11.17,1.6,2.88c0,0,.25.15.25-.16s1.4.64,1.71,2.56c0,0,.16.14.23-.15s.8.12.99,2c.09.05.2.01.25-.08,0,0,0,0,0,0,.13-.26.31-.14.31-.14.43.73.65,1.57.63,2.41.08,0,.16-.05.21-.12.06-.09.14-.17.22-.25,0,0,.38-1.09,1.28,3.85,0,0,.21-.48.3-.72,0,0,.69-.87.75,3.41,0,0,.18.3.45-.27,0,0,.42-1.11.42,3.68,0,0,.27,0,.24-.42,0,0,.57-.9.63,3.32,0,0,0,.39.27.09,0,0,.58-.79.42,1.95,0,.18.04.37.12.53l1.12,4.04s.19.25.29-.02c.08-.22-1.29-5.46-1.29-5.46-.22-.62-.33-1.28-.32-1.94.06-.91-.89-2.71-.89-2.71,0,0-.24-.7.36-.57s-1.05-2.45-1.05-2.45l-.18-1.02s-.13-.61.53-.39-.06-.48-.06-.48c-.31-.87-.58-1.76-.8-2.66.04-.21.12-.43.49-.22s.61,0,.31-.4c-.37-.93-.65-1.88-.84-2.86-.01-.18.13-.33.3-.34.07,0,.14.01.19.05.48.2.39-.14.39-.14,0,0-.46-.71-.74-3.4,0,0,.02-.4.39-.15s.48.48.53.25-.6-.5-.72-3.47c0,0-.05-.49.48-.31,0,0,.46.21.34-.21s-.51-.94-.49-3.46c0,0,.14-.32.49-.09,0,0,.5.52.4-.03s-.16-3.31-.16-3.31c0,0,.09-.36.48-.09s.21-.32.21-.32l-.13-2.16s.11-.52.46-.13.18-.22.18-.22l-.13-2.3s.04-.2.31-.13,1.26-6.74,1.26-6.74c.02-.05.09-.08.14-.05.02.01.04.03.05.05"/><path class="cls-2" d="m28.08,48.42c.1.27.29.02.29.02"/></svg>