<?xml version="1.0" encoding="UTF-8"?><svg id="Ind" xmlns="http://www.w3.org/2000/svg" viewBox="0 0 55.45 57"><defs><style>.cls-1{fill:#6d7a57;stroke-width:0px;}</style></defs><path class="cls-1" d="m28.15,50.47c0-1.07-.02-2.76-.02-3.83l.24-.13c1.2,2.16,2.29,4.35,4.03,6.18,1.77,1.85,4.1,2.65,6.08,4.22-.73-1.86-1.57-3.67-2.53-5.42-1.08-1.51-2.27-2.94-3.56-4.29l.15-.19c.24.17.51.32.78.44.75.26,1.52.47,2.3.62.81.03,1.62.1,2.42.22.76.23,1.6-.2,2.31.35.07.06.41-.23.71-.42.48-.05,1.13,1.04,1.63,0,.56-.25,1.33.81,1.63-.41.59-.11,1.42.79,1.71-.34.53-.03,1.06-.1,1.58-.21,1.01-.29,1.98-.68,2.99-.99.59-.18,1.21-.26,2.08-.44-1.12-.4-.91-.37-2.43-.69-.71-.15-1.37-.45-2.03-.75-.59-.27-1.76-.23-1.99-.68-.52-1.01-1.18-.38-1.82-.43-.27-1.11-1.38-.15-1.57-.45-.64-1.02-1.25.03-1.81-.28-.26-.17-.57-.26-.88-.25-.28.03-.57.34-.81.28-1.14-.37-2.38-.31-3.49.16.16-.32.19-.53.3-.6.9-.54,1.84-1.02,2.72-1.59.2-.13.23-.51.35-.78,1.67-.24,2.26-.73,1.95-1.59.66-.29,1.31-.57,2.02-.88l-.31-.62,2.45-1.08-.65-.68,2.62-1.44-.68-.58,2.18-1.48-.79-.57,2.39-1.78-.97-.52c.71-.89,1.64-1.35,1.93-2.68.31-1.45,1.56-2.7,2.41-4.03.16-.25.35-.48.51-.73.31-.5.59-1,.89-1.51l-.24-.21c-1.2.8-2.4,1.6-3.61,2.4-.22.14-.55.44-.65.37-.71-.46-1.05.23-1.52.45-.21.09-.46.4-.57.35-.98-.48-1.28.45-1.8.86-.24.28-.44.6-.58.94l-.68-1.19-1.71,2.07-.5-.79-1.7,2.23-.48-.84-1.64,2.67-.51-.89-1.34,2.49-.57-.36c-.22.42-.42.76-.59,1.11-.17.35-.31.7-.48,1.08-.72-.61-1.08-.2-1.69,1.78l-.22-.19-1.23,1.34c.06-.99.25-1.97.57-2.9.19-.59.46-1.14-.29-1.29l1.25-3.1h-1.16l1.03-2.52-1.07-.13c.59-1.04,1.45-1.93,1.04-3.27l-.9.26,1.03-3.69-1.29.36.68-3.34-1.25.34.41-3.69-1.26.52c-.16-1.27.64-2.71-.85-3.59-.19-.75-.15-1.91-.65-2.25-.79-.52-.64-1.13-.75-1.74-.23-1.79-.79-3.52-1.66-5.1-.28.6-.48,1.05-.69,1.49-.95,1.93-.51,4.3-1.99,6.09-.31.37-.21,1.08-.29,1.63-1.42.85-.69,2.31-.9,3.53l-1.27-.64.44,3.79-1.29-.4.72,3.41-1.31-.43c.39,1.41.72,2.57,1.04,3.73-.28-.08-.55-.16-.87-.26-.39,1.32.35,2.25,1.03,3.26l-1.11.16,1.06,3.17h-1.19l1.27,3.1-.65.35c.22.54.39,1.04.61,1.51.42.91.43.91-.01,1.61-1.55-.22-1.32-1.95-2.32-2.68l-.53.35-1.05-2.1-.57.37-1.29-2.38-.61.69-1.58-2.53-.51.75-1.69-2.19-.46.83-1.79-2.09-.5.92c-.48-.45-.89-.88-1.34-1.27-.22-.19-.62-.52-.7-.46-.63.46-.91-.14-1.32-.35-.26-.14-.6-.48-.76-.41-.89.42-1.27-.37-1.82-.69-1.02-.6-2.01-1.27-3.01-1.9l-.22.25c.55.81,1.11,1.62,1.64,2.44.8,1.25,1.57,2.51,2.35,3.76.05.08.11.22.08.26-.49.61.13.89.41,1.2.42.43.87.84,1.34,1.22l-1,.53,2.4,1.79-.84.56,2.22,1.48-.74.55,2.67,1.48-.67.75,2.46.96-.3.69,2.05.87c-.35.86.15,1.27,1.65,1.56.27.35.57.68.91.97.89.57,1.81,1.08,2.9,1.72-.88.07-1.77.06-2.65-.04-.76-.16-1.56.3-2.28-.21-.15.14-.28.29-.41.45-.57.25-1.16-.85-1.8.17-.23.36-1.34-.73-1.57.39h-1.62c.04.78-.63.43-1.02.54-.19.05-.39.07-.57.13-1.15.41-2.3.84-3.46,1.24-.44.15-.9.24-1.5.4l6.62,1.68.1.42,1.57-.23-.03.25c.24.11.49.18.75.22.29,0,.81-.19.83-.15.39.88.97.21,1.46.17.15-.01.4-.08.43-.03.42.7.86.21,1.3.05.13-.07.28-.11.43-.12.73.13,1.47.18,2.21.14,1.5-.27,2.97-.72,4.59-1.14-1.27,1.23-2.44,2.54-3.52,3.91-.95,1.55-1.8,3.14-2.55,4.78.48-.22.95-.47,1.4-.74,1.71-.67,3.26-1.64,4.56-2.86,1.24-1.26,2.48-2.47,3.15-4.09.27-.53.59-1.04.95-1.53l.31.1c0,.32,0,.64,0,.95-.02.84-.08,1.68-.07,2.52h.74Z"/></svg>