<?xml version="1.0" encoding="UTF-8"?><svg id="Indoor" xmlns="http://www.w3.org/2000/svg" viewBox="0 0 55.45 57"><defs><style>.cls-1{fill:#f4f1d9;fill-rule:evenodd;stroke-width:0px;}</style></defs><path class="cls-1" d="m13.01,0c-1.52-.02-2.69,1.56-1.91,3.19.33.69,1.09,1.08,1.85,1.08h.05s12.59,0,12.59,0v4.27h-8.26c-.72,0-1.4.37-1.79.98L2.53,29.67c-.34.52-.49,1.17-.32,1.77.3,1.03,1.17,1.62,2.08,1.62h9.06c7.51,8.65,21.23,8.66,28.73,0h8.97c.75,0,1.5-.34,1.89-.97.48-.77.44-1.69,0-2.38l-13.04-20.2c-.39-.61-1.07-.98-1.79-.98h-8.26v-4.27h12.59c1.52.02,2.69-1.56,1.91-3.19C44.03.39,43.27,0,42.51,0h-.05s-29.45,0-29.45,0h0Zm4.86,12.8h18.94l10.49,15.99H7.38l10.49-15.99Zm1.69,20.26h15.56c-4.73,2.84-10.83,2.84-15.56,0Z"/><path class="cls-1" d="m27.7,43.72c-1.18.02-2.12.99-2.1,2.16v8.96c-.02,1.52,1.56,2.69,3.19,1.91.69-.33,1.08-1.09,1.08-1.85v-.05s0-8.96,0-8.96c.02-1.18-.92-2.15-2.1-2.16-.02,0-.04,0-.06,0Z"/><path class="cls-1" d="m18.08,41.96c-.55,0-1.09.22-1.48.61l-6.5,6.2c-.86.8-.91,2.15-.11,3.01.8.86,2.15.91,3.01.11.01-.01.03-.02.04-.04l6.5-6.2c.86-.8.91-2.15.11-3.01-.41-.44-.98-.69-1.58-.68Z"/><path class="cls-1" d="m35.39,42.52c-1.18.03-2.11,1.01-2.08,2.18.01.58.26,1.12.68,1.51l6.68,6.37c.84.82,2.19.81,3.02-.03.82-.84.81-2.19-.03-3.02-.01-.01-.03-.03-.04-.04l-6.68-6.37c-.41-.4-.97-.62-1.55-.61Z"/></svg>