<?xml version="1.0" encoding="UTF-8"?><svg id="Layer_3" xmlns="http://www.w3.org/2000/svg" viewBox="0 0 55.45 57"><defs><style>.cls-1{fill:#d4c800;stroke-width:0px;}</style></defs><path class="cls-1" d="m27.65,38.2c5.44,0,9.77-4.33,9.77-9.77s-4.33-9.77-9.77-9.77-9.77,4.33-9.77,9.77,4.46,9.77,9.77,9.77Zm0-15.35c3.07,0,5.58,2.51,5.58,5.58s-2.51,5.58-5.58,5.58-5.58-2.51-5.58-5.58,2.51-5.58,5.58-5.58Z"/><path class="cls-1" d="m25.56,41.55v11.86c0,1.12.98,2.09,2.09,2.09s2.09-.98,2.09-2.09v-11.86c0-1.12-.98-2.09-2.09-2.09s-2.09.98-2.09,2.09Z"/><path class="cls-1" d="m27.65,17.55c1.12,0,2.09-.98,2.09-2.09V3.6c0-1.12-.98-2.09-2.09-2.09s-2.09.98-2.09,2.09v11.86c0,1.26.98,2.09,2.09,2.09Z"/><path class="cls-1" d="m36.86,21.31c.56,0,1.12-.14,1.53-.56l8.37-8.37c.84-.84.84-2.09,0-2.93s-2.09-.84-2.93,0l-8.37,8.37c-.84.84-.84,2.09,0,2.93.42.42.98.56,1.4.56Z"/><path class="cls-1" d="m17.05,36.1l-8.37,8.37c-.84.84-.84,2.09,0,2.93.42.42.98.56,1.53.56s1.12-.14,1.53-.56l8.37-8.37c.84-.84.84-2.09,0-2.93-.98-.84-2.23-.84-3.07,0Z"/><path class="cls-1" d="m16.77,28.01c0-1.12-.98-2.09-2.09-2.09H2.82c-1.12,0-2.09.98-2.09,2.09s.98,2.09,2.09,2.09h11.86c1.12,0,2.09-.98,2.09-2.09Z"/><path class="cls-1" d="m38.68,28.01c0,1.12.98,2.09,2.09,2.09h11.86c1.12,0,2.09-.98,2.09-2.09s-.98-2.09-2.09-2.09h-11.86c-1.26,0-2.09.98-2.09,2.09Z"/><path class="cls-1" d="m35.47,35.69c-.84.84-.84,2.09,0,2.93l8.37,8.37c.42.42.98.56,1.53.56s1.12-.14,1.53-.56c.84-.84.84-2.09,0-2.93l-8.37-8.37c-.84-.84-2.23-.84-3.07,0Z"/><path class="cls-1" d="m17.19,20.34c.42.42.98.56,1.53.56s1.12-.14,1.53-.56c.84-.84.84-2.09,0-2.93l-8.37-8.37c-.84-.84-2.09-.84-2.93,0s-.84,2.09,0,2.93l8.23,8.37Z"/></svg>