<?xml version="1.0" encoding="UTF-8" standalone="no"?>
<!-- Created with Inkscape (http://www.inkscape.org/) -->

<svg
   width="60"
   height="60"
   viewBox="0 0 15.875 15.875"
   version="1.1"
   id="svg1"
   sodipodi:docname="RUD_Icon.svg"
   inkscape:version="1.3.2 (091e20e, 2023-11-25)"
   xmlns:inkscape="http://www.inkscape.org/namespaces/inkscape"
   xmlns:sodipodi="http://sodipodi.sourceforge.net/DTD/sodipodi-0.dtd"
   xmlns="http://www.w3.org/2000/svg"
   xmlns:svg="http://www.w3.org/2000/svg">
  <sodipodi:namedview
     id="namedview1"
     pagecolor="#ffffff"
     bordercolor="#000000"
     borderopacity="0.25"
     inkscape:showpageshadow="2"
     inkscape:pageopacity="0.0"
     inkscape:pagecheckerboard="0"
     inkscape:deskcolor="#d1d1d1"
     inkscape:zoom="3.9333333"
     inkscape:cx="29.872881"
     inkscape:cy="30"
     inkscape:window-width="1728"
     inkscape:window-height="1051"
     inkscape:window-x="0"
     inkscape:window-y="38"
     inkscape:window-maximized="0"
     inkscape:current-layer="svg1" />
  <defs
     id="defs1" />
  <circle
     style="opacity:0.5;fill:#e8e8e8;fill-opacity:1;stroke:none;stroke-width:2.64583;stroke-dasharray:none"
     id="path3"
     cx="7.9375"
     cy="7.9375"
     r="7.3320975" />
  <g
     id="layer1"
     style="display:inline">
    <g
       id="g5"
       transform="matrix(0.39486171,0,0,0.39486171,-9.683493,-35.22116)">
      <path
         d="m 44.486952,-68.587306 c 0.08076,0.03092 0.205662,-0.03786 0.277561,-0.15299"
         style="display:inline;fill:#005000;fill-opacity:1;stroke-width:0.273706"
         id="path1" />
      <circle
         style="fill:none;stroke:#e8e8e8;stroke-width:2.64583;stroke-dasharray:none;stroke-opacity:1"
         id="path2"
         cx="44.625732"
         cy="109.3007"
         r="18.108994" />
      <path
         d="m 40.238206,120.76833 c 0.270373,-0.4649 1.195738,-1.2958 2.201276,-1.97654 2.104314,-1.42464 2.186514,-1.50154 1.130245,-1.05754 -0.457097,0.19217 -0.887928,0.29172 -0.957372,0.22126 -0.06941,-0.0705 -0.284142,0.005 -0.477062,0.16723 -0.192932,0.16245 -0.415407,0.2298 -0.49438,0.14967 -0.07893,-0.0801 -0.280407,-0.0305 -0.447641,0.11032 -0.224245,0.18881 -0.304035,0.1869 -0.304035,-0.007 0,-0.16763 -0.205779,-0.1265 -0.566389,0.11321 -0.395359,0.26281 -0.56639,0.29158 -0.56639,0.0953 0,-0.1876 -0.194824,-0.23158 -0.585362,-0.13214 -0.3747,0.0954 -0.533711,0.0642 -0.441848,-0.0865 0.09248,-0.1518 -0.102207,-0.18573 -0.547407,-0.0954 -0.380007,0.0772 -0.691076,0.0496 -0.691252,-0.0609 -6.83e-4,-0.3674 -1.844773,-0.3472 -2.406745,0.0263 -0.295976,0.19675 -0.538138,0.25897 -0.538138,0.13824 0,-0.30596 1.238886,-1.17016 1.677486,-1.17016 0.198828,0 0.3615,-0.0928 0.3615,-0.20626 0,-0.25017 2.872728,-0.7857 3.18028,-0.59287 0.119927,0.0751 0.218048,0.0211 0.218048,-0.12026 0,-0.14133 0.103635,-0.19199 0.230307,-0.11257 0.126672,0.0794 0.661914,0.18473 1.189417,0.234 0.928583,0.0867 0.94108,0.0791 0.392711,-0.23763 -0.311514,-0.17996 -0.701111,-0.33086 -0.865759,-0.33534 -0.164659,-0.004 -0.441486,-0.13743 -0.615166,-0.29545 -0.749689,-0.68207 -1.005951,-0.86192 -1.228169,-0.86192 -0.129858,0 -0.23612,-0.0964 -0.23612,-0.21435 0,-0.1179 -0.205376,-0.28048 -0.456404,-0.36132 -0.251007,-0.0808 -0.405083,-0.23118 -0.342372,-0.33412 0.06269,-0.10293 -0.099,-0.24368 -0.359338,-0.31275 -0.260379,-0.0691 -0.406117,-0.23596 -0.323917,-0.37089 0.08224,-0.13493 0.02803,-0.24532 -0.120363,-0.24532 -0.282113,0 -1.880741,-1.6037 -1.610793,-1.61591 0.08514,-0.003 -0.02586,-0.11362 -0.246538,-0.24396 -0.220675,-0.13034 -0.342093,-0.33405 -0.269813,-0.4527 0.07231,-0.11864 0.02348,-0.21572 -0.108518,-0.21572 -0.131958,0 -0.239927,-0.10794 -0.239927,-0.23986 0,-0.40991 -1.033666,-1.39555 -2.184238,-2.08278 -0.605442,-0.36161 -1.039562,-0.65925 -0.964697,-0.66141 0.233928,-0.007 1.636138,0.48926 2.582545,0.91352 1.17719,0.5277 1.770093,0.76197 1.990624,0.78654 0.09797,0.011 0.274842,0.175 0.393,0.36462 0.190945,0.30645 0.216,0.30645 0.225487,0 0.0083,-0.27086 0.07883,-0.25361 0.328241,0.0805 0.174652,0.23387 0.427003,0.3566 0.560772,0.27273 0.13378,-0.0839 0.301924,0.003 0.373656,0.19232 0.07179,0.18964 0.265706,0.29215 0.431048,0.22779 0.170689,-0.0664 0.365472,0.0902 0.450672,0.36261 0.08255,0.26381 0.251524,0.41603 0.375549,0.33826 0.124024,-0.0778 0.283003,0.0817 0.353286,0.35443 0.07686,0.29837 0.251286,0.44774 0.437865,0.37511 0.201,-0.0783 0.310055,0.0471 0.310055,0.35635 0,0.32963 0.105032,0.43619 0.339838,0.34477 0.207,-0.0806 0.339828,-4.6e-4 0.339828,0.20525 0,0.18566 0.152928,0.33756 0.339838,0.33756 0.1869,0 0.339828,0.16125 0.339828,0.35832 0,0.19709 0.102,0.29442 0.226562,0.21628 0.203751,-0.12775 0.324682,0.17394 0.253376,0.63208 -0.01469,0.0949 0.126103,0.17238 0.313013,0.17238 0.1869,0 0.339828,0.15515 0.339828,0.34477 0,0.18962 0.102,0.34476 0.226552,0.34476 0.124613,0 0.226562,0.15165 0.226562,0.33697 0,0.44326 0.717486,1.96148 0.926969,1.96148 0.143865,0 -0.07583,-1.07744 -0.421935,-2.0686 -0.225569,-0.64609 -0.314762,-1.03381 -0.389058,-1.69116 -0.04086,-0.36127 -0.185566,-0.76982 -0.321662,-0.90788 -0.310025,-0.31454 -0.32579,-0.69504 -0.0209,-0.50386 0.124603,0.0781 0.226552,0.0387 0.226552,-0.0878 0,-0.12641 -0.101897,-0.29376 -0.226552,-0.37188 -0.30179,-0.18922 -0.29129,-1.03431 0.01283,-1.03431 0.134193,0 0.08441,-0.22451 -0.113276,-0.51083 -0.417135,-0.60419 -0.460221,-0.96279 -0.08762,-0.72918 0.186776,0.11712 0.212638,0.0362 0.08762,-0.27373 -0.422369,-1.04697 -0.422235,-1.25706 6.82e-4,-1.09241 0.386473,0.15045 0.387911,0.1298 0.02731,-0.3925 -0.4731,-0.68526 -0.492952,-1.16784 -0.04076,-0.99181 0.376552,0.14659 0.471807,-0.26671 0.113276,-0.4915 -0.309972,-0.19436 -0.286552,-0.9757 0.03248,-1.08359 0.194358,-0.0658 0.194358,-0.21024 0,-0.57866 -0.142469,-0.27008 -0.259035,-0.66566 -0.259035,-0.87906 0,-0.30803 0.0659,-0.33251 0.319759,-0.11879 0.269472,0.22688 0.299679,0.11735 0.192072,-0.69658 -0.09114,-0.68934 -0.054,-0.91956 0.129931,-0.80427 0.182369,0.11434 0.215038,-0.0544 0.111838,-0.57801 -0.122379,-0.62082 -0.08669,-0.71653 0.2223,-0.59623 0.30448,0.11853 0.344938,0.0259 0.234156,-0.53604 -0.08804,-0.446536 -0.042,-0.679326 0.134327,-0.679326 0.147528,0 0.207021,-0.10055 0.132176,-0.22335 -0.07479,-0.122842 0.02141,-0.467252 0.213972,-0.765349 0.192528,-0.298086 0.281721,-0.611296 0.198218,-0.696021 -0.08348,-0.08472 -0.03704,-0.154034 0.103344,-0.154034 0.140369,0 0.377763,-0.414943 0.527545,-0.922108 0.149773,-0.507155 0.423445,-1.049344 0.608152,-1.204879 0.284235,-0.239307 0.311638,-0.205376 0.178324,0.220769 -0.208241,0.665613 -0.315755,2.595752 -0.144579,2.595752 0.07386,0 0.131959,0.466583 0.128938,1.03684 -0.0041,0.736696 0.07645,1.004936 0.277717,0.926596 0.340893,-0.13273 0.344928,-0.0895 0.06228,0.66481 -0.152938,0.40806 -0.145366,0.58957 0.02462,0.58957 0.146513,0 0.190086,0.22405 0.108062,0.55558 -0.08534,0.34522 -0.03134,0.59147 0.142686,0.65034 0.219145,0.0741 0.221597,0.22508 0.01128,0.69334 -0.174228,0.38793 -0.188245,0.62588 -0.03983,0.67606 0.154262,0.0521 0.154149,0.2772 -2.27e-4,0.68942 -0.160914,0.42937 -0.155431,0.63698 0.01831,0.69574 0.173597,0.0588 0.16321,0.24393 -0.03476,0.61916 -0.219744,0.41655 -0.221762,0.57343 -0.0093,0.70677 0.212669,0.13334 0.210652,0.29023 -0.0093,0.70678 -0.204952,0.38851 -0.212297,0.55912 -0.02669,0.62186 0.178624,0.0604 0.152535,0.28882 -0.08659,0.75798 -0.226614,0.44458 -0.2562,0.67151 -0.08752,0.67151 0.148034,0 0.05876,0.33697 -0.213104,0.80446 -0.379924,0.65327 -0.404431,0.80445 -0.130427,0.80445 0.294248,0 0.292148,0.0701 -0.01645,0.54788 -0.194607,0.30132 -0.325645,0.63746 -0.291186,0.74698 0.03445,0.10953 -0.05545,0.50943 -0.199645,0.88866 -0.474621,1.24771 -1.045458,3.34114 -0.940179,3.44795 0.05679,0.0576 0.351858,-0.66938 0.655655,-1.6156 0.372652,-1.16065 0.647462,-1.6837 0.844666,-1.60765 0.160748,0.0621 0.276113,-0.0149 0.256344,-0.17091 -0.07117,-0.56121 0.02152,-0.88302 0.218535,-0.75947 0.110441,0.0692 0.25651,-0.0902 0.32459,-0.35433 0.06807,-0.26416 0.232582,-0.41201 0.365586,-0.32861 0.142945,0.0896 0.24181,-0.0519 0.24181,-0.34623 0,-0.34809 0.102207,-0.45805 0.339828,-0.36555 0.234807,0.0915 0.339838,-0.0151 0.339838,-0.34476 0,-0.31583 0.107834,-0.43509 0.319055,-0.35286 0.203203,0.0791 0.368565,-0.0759 0.45541,-0.42698 0.08421,-0.34012 0.254224,-0.50532 0.444114,-0.43139 0.184935,0.072 0.370935,-0.0918 0.466055,-0.41034 0.09486,-0.31787 0.205107,-0.41511 0.275204,-0.24285 0.180765,0.44424 0.532262,0.33937 0.532262,-0.15882 0,-0.49258 0.448779,-0.91117 0.460314,-0.42935 0.0041,0.19201 0.12211,0.14701 0.324765,-0.12438 0.174652,-0.23387 0.415593,-0.36376 0.535428,-0.28862 0.119845,0.0751 0.276714,-0.0188 0.34861,-0.20895 0.0719,-0.19008 0.21001,-0.3282 0.306931,-0.30697 0.09693,0.0213 0.329142,-0.0251 0.516052,-0.10313 0.902845,-0.37662 3.732341,-1.30922 3.947566,-1.30114 0.134038,0.005 -0.133759,0.20052 -0.595107,0.43442 -1.0974,0.55634 -2.014956,1.29642 -1.834407,1.47959 0.07883,0.08 0.02441,0.14543 -0.120962,0.14543 -0.145376,0 -0.264311,0.14408 -0.264311,0.32017 0,0.17611 -0.175562,0.38853 -0.390124,0.47206 -0.302638,0.11782 -0.323783,0.19347 -0.09424,0.33737 0.231476,0.14514 0.214655,0.2171 -0.07728,0.33077 -0.205242,0.08 -0.314266,0.24201 -0.242255,0.36021 0.072,0.11821 -0.07593,0.28153 -0.328759,0.36294 -0.252838,0.0814 -0.400769,0.24474 -0.328769,0.36294 0.072,0.1182 -0.02793,0.27674 -0.221959,0.3523 -0.194089,0.0756 -0.301024,0.22253 -0.237631,0.3266 0.06341,0.10406 -0.09155,0.25582 -0.34442,0.33723 -0.252828,0.0814 -0.396973,0.25095 -0.320328,0.37678 0.07665,0.12582 -0.07479,0.28559 -0.336538,0.35503 -0.261755,0.0694 -0.475903,0.26934 -0.475903,0.44421 0,0.17488 -0.209928,0.31796 -0.46649,0.31796 -0.272897,0 -0.404462,0.10179 -0.317038,0.24532 0.08224,0.13494 -0.06352,0.30182 -0.323907,0.3709 -0.260348,0.0691 -0.419896,0.21333 -0.354558,0.3206 0.06538,0.10726 -0.216166,0.29303 -0.625573,0.41283 -0.409407,0.11979 -0.602441,0.22714 -0.428979,0.23853 0.173472,0.0114 -0.387249,0.38949 -1.246045,0.84021 -0.858797,0.45071 -1.816324,1.0756 -2.127838,1.38863 l -0.56639,0.56916 1.093314,-0.58698 c 0.601314,-0.32283 1.18049,-0.53231 1.287031,-0.4655 0.106552,0.0668 0.2568,0.0179 0.33389,-0.10861 0.07707,-0.12655 0.364489,-0.23013 0.638679,-0.2302 0.27419,-7e-5 0.661904,-0.0188 0.8616,-0.0418 0.694076,-0.0798 3.815804,0.55883 3.695721,0.75594 -0.06641,0.10909 0.04221,0.19836 0.241397,0.19836 0.439613,0 2.242624,0.90873 2.09671,1.05675 -0.0571,0.0579 -0.383814,-0.003 -0.726031,-0.13469 -0.710473,-0.27403 -2.385,-0.21728 -2.385497,0.0809 -1.86e-4,0.10916 -0.306186,0.15292 -0.679996,0.0972 -0.373821,-0.0557 -0.679666,-0.0182 -0.679666,0.0832 0,0.10138 -0.248079,0.0887 -0.551296,-0.0283 -0.37738,-0.14557 -0.578204,-0.13073 -0.636611,0.047 -0.0539,0.16386 -0.247489,0.19063 -0.524845,0.0725 -0.241738,-0.10293 -0.694396,-0.21835 -1.00591,-0.25646 -0.974369,-0.11921 -1.682473,-0.26788 -2.152262,-0.4519 -0.356814,-0.13976 -0.312217,-0.024 0.209803,0.54487 0.364593,0.39729 0.849973,0.78259 1.078614,0.8562 0.228641,0.0736 0.574893,0.44616 0.769459,0.82788 0.349055,0.68479 0.346769,0.69183 -0.172397,0.52972 -0.289386,-0.0904 -0.984931,-0.64271 -1.545652,-1.22745 l -1.019493,-1.06317 -0.129114,1.72383 -0.129093,1.72383 -0.05266,-1.95367 c -0.05162,-1.91321 -0.06072,-1.94195 -0.437286,-1.38755 -0.50131,0.73796 -1.3269,1.46403 -1.733545,1.52458 -0.344876,0.0513 -1.998921,1.24182 -2.12489,1.52933 -0.04148,0.0949 -0.165527,0.17239 -0.275545,0.17239 -0.110027,0 0.01035,-0.36093 0.266432,-0.80207 z m 2.803304,-4.02466 c -0.07697,-0.12641 -0.241966,-0.22984 -0.366569,-0.22984 -0.124604,0 -0.163552,0.10345 -0.08659,0.22984 0.07697,0.12642 0.241965,0.22985 0.366569,0.22985 0.124603,0 0.163541,-0.10344 0.08659,-0.22985 z"
         style="fill:#808000;stroke-width:0.228193"
         id="path1-7" />
    </g>
  </g>
</svg>
