<?xml version="1.0" encoding="UTF-8"?><svg id="Sativs" xmlns="http://www.w3.org/2000/svg" viewBox="0 0 55.45 56.81"><defs><style>.cls-1{fill:#879e63;stroke-width:0px;}</style></defs><path class="cls-1" d="m27.84,54.45h-.48s0-4.17,0-4.17c0-.02-.02-.04-.04-.04,0,0-.02,0-.02,0-.65.46-6.1,4.3-7.8,6.08-.02.02-.04.02-.06,0-.01-.01-.02-.03,0-.04.37-1.02,2.38-5.95,6.73-6.63.05,0,.1-.07,0-.11-.98-.12-4.1-.37-6.17.59-.02,0-.04,0-.05-.01-.11-.12-.2-.27-.26-.43,0-.04-.03-.05-.06-.03-.38.34-.85.56-1.35.63-.02,0-.04-.01-.04-.03-.04-.14-.07-.29-.08-.44,0-.02-.02-.04-.04-.04-.01,0-.02,0-.03.01-.42.38-.97.58-1.53.55-.02,0-.04-.02-.04-.04,0-.16.06-.32.14-.46-.46.47-1.1.72-1.75.7-.02,0-.04-.02-.04-.04-.02-.13-.06-.57.02-.6-.41.49-.99.81-1.63.87-.02,0-.04,0-.05-.03-.07-.18-.05-.37.03-.54-.49.48-1.13.78-1.81.85-.02,0-.04-.01-.04-.03-.02-.14-.1-.66,0-.66-.47.35-1.03.57-1.61.65-.02,0-.04-.02-.04-.04,0,0,0,0,0,0,0-.14.07-.62.04-.57-.35.37-.82.61-1.32.68-.02,0-.04-.02-.04-.04,0,0,0,0,0,0,.03-.16.21-.67.17-.63-.34.36-.79.61-1.28.71-.02,0-.04-.01-.05-.04,0,0,0,0,0-.01l.05-.38c-.86.6-1.87.95-2.92,1.01-.02,0-.04-.02-.04-.04,0,0,0-.02,0-.02.16-.24.84-1.07,2.67-1.71l.03-.03c.02-.14.18-.9,1.34-.8.02,0,.04-.01.05-.04,0,0,0,0,0,0l-.05-.48s0-.03.02-.04c.34-.2.75-.25,1.14-.13.02.01.04,0,.06-.02,0-.01,0-.02,0-.03l-.15-.41c-.02-.06,0-.08.01-.09.53-.14,1.09-.18,1.64-.12.02,0,.04-.01.05-.03,0,0,0-.01,0-.02l-.16-.43c-.02-.06,0-.09.02-.09.55-.07,1.11-.06,1.65.01.05.02.11-.01.12-.07,0-.01,0-.03,0-.04-.02-.17-.07-.42-.16-.42.63-.24,1.32-.27,1.97-.1.53.27-.09-.2-.34-.38-.02-.01-.02-.04,0-.06,0-.01.02-.02.03-.02.5-.01.99.07,1.46.23.58.27-.09-.42-.09-.42.55.08,1.09.21,1.61.4,0,0-.22-.45-.33-.45s.55-.21,1.94.51c0,0-.15-.45-.24-.48.67.03,1.31.28,1.82.71,0,0,0-.39-.1-.46,0,0,5.43,2.48,6,2.94,0,0,.13.03.09-.12-.37-.21-5.5-2.82-5.5-2.82l.22-.18s.36-.18-1.5-.21c-.5-.04-.98-.23-1.37-.54,0,0-.13-.27.4-.25,0,0,.04-.19-.24-.19s-1.74.09-2.04-.43c0,0-.09-.31.54-.3,0,0,.15-.21-.15-.25s-2.16.03-2.43-.64c0,0-.22-.4.75-.3,0,0,.12-.21-.13-.21s-2.25,0-2.52-.64c0,0-.12-.48.75-.31.02-.12-.05-.23-.17-.25-.02,0-.05,0-.07,0-.28,0-2.04.19-2.68-.55,0,0-.37-.55.89-.51,0,0,.16-.21-.36-.21s-1.97.1-2.58-.63c0,0-.25-.42.67-.45,0,0,.22-.16-.46-.18-.79,0-1.54-.34-2.07-.92,0,0-.22-.39.73-.19,0,0,.13-.21-.39-.21s-1.65-.43-1.7-.67.72-.15.72-.15c0,0,.09-.24-.28-.24s-1.42-.25-1.64-.86-3.78-1.85-3.78-1.85c0,0,1.59-.51,4.38.82.12-.14.14-.34.04-.49.61,0,1.19.25,1.59.7,0,0,.4.25.31-.43,0,0,.28-.28,1.3.63,0,0,.48.18.3-.42,0,0,.43-.28,2,1.16,0,0,.15.09.18-.21.01-.21-.01-.41-.07-.61.74.27,1.38.74,1.86,1.36,0,0,.28.19.22-.3s1.91,1.25,1.91,1.25c0,0,.31.18.22-.42s1.42,1.06,1.42,1.06c0,0,.15.16.1-.18s.98.63,1.13,1.1.15-.15.15-.15v-.28s.73-.16,1.93,1.85c0,0,.16.18.21-.07.03-.15.03-.31,0-.46,0,0,1.47,1.17,1.54,1.91,0,0,.16.13.19-.01.02-.1.01-.21-.01-.31,0,0,.96.07,1.24,1.96,0,0,.18.06.25-.01s3.99,5.24,3.99,5.24c0,0,.18.05.15-.12l-3.16-4.77s-.06-.25.16-.2-1.89-2.24-1.89-2.24c0,0,.52-.33-.12-.73-.89-.74-1.74-1.53-2.53-2.37,0,0-.06-.42.44-.24,0,0,.32,0-.13-.37s-1.84-1.77-1.84-1.77c0,0-.14-.45.45-.35,0,0,.44.09.3-.18s-2.24-2.34-2.24-2.34c0,0-.02-.35.46-.22.48.13.18-.16.18-.16l-2.16-2.12s-.2-.52.47-.43.09-.22.09-.22l-2.8-2.72s-.06-.45.54-.49-1.7-1.97-1.7-1.97c0,0-.16-.54.59-.53s-2.05-2.64-2.05-2.64c0,0-.11-.45.5-.41s-1.33-1.81-1.33-1.81c0,0-.11-.39.42-.35s-1.39-1.87-1.39-1.87c0,0-.04-.34.38-.29s-3.27-4.5-3.27-4.5c0,0-.04-.46.39-.33.43.13,3.68,3.7,3.68,3.7.07-.07.09-.16.06-.25-.04-.17.4-.06.34.26s1.44,1.59,1.44,1.59c.14-.07.21-.24.15-.39-.08-.29,1.09.14,1.42,1.59,0,0,.1.16.17-.06s.03-.18.03-.18c0,0,1.02-.38,1.93,2.59,0,0,.14.19.17-.35l-.03-.34s1.11.17,1.6,2.88c0,0,.25.15.25-.16s1.4.64,1.71,2.56c0,0,.16.14.23-.15s.8.12.99,2c.09.05.2.01.25-.08,0,0,0,0,0,0,.13-.26.31-.14.31-.14.43.73.65,1.57.63,2.41.08,0,.16-.05.21-.12.06-.09.14-.17.22-.25,0,0,.38-1.09,1.28,3.85,0,0,.21-.48.3-.72,0,0,.69-.87.75,3.41,0,0,.18.3.45-.27,0,0,.42-1.11.42,3.68,0,0,.27,0,.24-.42,0,0,.57-.9.63,3.32,0,0,0,.39.27.09,0,0,.58-.79.42,1.95,0,.18.04.37.12.53l1.12,4.04s.19.25.29-.02c.08-.22-1.29-5.46-1.29-5.46-.22-.62-.33-1.28-.32-1.94.06-.91-.89-2.71-.89-2.71,0,0-.24-.7.36-.57s-1.05-2.45-1.05-2.45l-.18-1.02s-.13-.61.53-.39-.06-.48-.06-.48c-.31-.87-.58-1.76-.8-2.66.04-.21.12-.43.49-.22s.61,0,.31-.4c-.37-.93-.65-1.88-.84-2.86-.01-.18.13-.33.3-.34.07,0,.14.01.19.05.48.2.39-.14.39-.14,0,0-.46-.71-.74-3.4,0,0,.02-.4.39-.15s.48.48.53.25-.6-.5-.72-3.47c0,0-.05-.49.48-.31,0,0,.46.21.34-.21s-.51-.94-.49-3.46c0,0,.14-.32.49-.09,0,0,.5.52.4-.03s-.16-3.31-.16-3.31c0,0,.09-.36.48-.09s.21-.32.21-.32l-.13-2.16s.11-.52.46-.13.18-.22.18-.22l-.13-2.3s.04-.2.31-.13,1.26-6.74,1.26-6.74c.02-.05.09-.08.14-.05.02.01.04.03.05.05,0,0,.99,6.81,1.26,6.74s.31.13.31.13l-.13,2.3s-.17.61.18.22.46.13.46.13l-.13,2.16s-.18.59.21.32.48.09.48.09c0,0-.06,2.76-.16,3.31s.4.03.4.03c.35-.23.49.09.49.09.02,2.52-.37,3.04-.49,3.46s.34.21.34.21c.53-.18.48.31.48.31-.12,2.97-.77,3.24-.72,3.47s.16,0,.53-.25.39.15.39.15c-.28,2.69-.74,3.4-.74,3.4,0,0-.09.34.39.14.15-.1.35-.05.45.1.04.06.06.13.05.19-.19.98-.47,1.93-.84,2.86-.3.39-.06.61.31.4s.45,0,.49.22c-.22.9-.48,1.79-.8,2.66,0,0-.72.7-.06.48s.53.39.53.39l-.18,1.02s-1.64,2.58-1.05,2.45.36.57.36.57c0,0-.95,1.8-.89,2.71,0,.66-.1,1.32-.32,1.94,0,0-1.37,5.24-1.29,5.46.1.27.29.02.29.02l1.12-4.04c.08-.17.12-.35.12-.53-.16-2.74.42-1.95.42-1.95.27.3.27-.09.27-.09.06-4.22.63-3.32.63-3.32-.03.42.24.42.24.42,0-4.79.42-3.68.42-3.68.27.57.45.27.45.27.06-4.28.75-3.41.75-3.41.09.24.3.72.3.72.9-4.94,1.28-3.85,1.28-3.85.08.08.15.16.22.25.05.07.12.11.21.12-.02-.85.2-1.68.63-2.41,0,0,.18-.12.31.14.05.09.16.13.25.08,0,0,0,0,0,0,.19-1.88.92-2.29.99-2s.23.15.23.15c.32-1.92,1.71-2.87,1.71-2.56s.25.16.25.16c.49-2.71,1.6-2.88,1.6-2.88l-.03.34c.03.54.17.35.17.35.92-2.97,1.93-2.59,1.93-2.59,0,0-.04-.04.03.18s.17.06.17.06c.33-1.45,1.5-1.87,1.42-1.59-.06.15,0,.32.15.39,0,0,1.5-1.27,1.44-1.59s.38-.43.34-.26c-.03.09,0,.18.06.25,0,0,3.25-3.57,3.68-3.7s.39.33.39.33c0,0-3.69,4.55-3.27,4.5s.38.29.38.29c0,0-1.91,1.91-1.39,1.87s.42.35.42.35c0,0-1.93,1.85-1.33,1.81s.5.41.5.41c0,0-2.8,2.65-2.05,2.64s.59.53.59.53c0,0-2.3,1.93-1.7,1.97s.54.49.54.49l-2.8,2.72s-.58.31.09.22.47.43.47.43l-2.16,2.12s-.3.29.18.16.46.22.46.22c0,0-2.1,2.07-2.24,2.34s.3.18.3.18c.59-.1.45.35.45.35,0,0-1.4,1.4-1.84,1.77s-.13.37-.13.37c.5-.18.44.24.44.24-.79.84-1.64,1.64-2.53,2.37-.64.4-.12.73-.12.73,0,0-2.11,2.29-1.89,2.24s.16.2.16.2l-3.16,4.77c-.04.17.15.12.15.12,0,0,3.91-5.31,3.99-5.24s.25.01.25.01c.28-1.88,1.24-1.96,1.24-1.96-.03.1-.03.21-.01.31.03.15.19.01.19.01.07-.75,1.54-1.91,1.54-1.91-.03.15-.03.31,0,.46.04.25.21.07.21.07,1.2-2.02,1.93-1.85,1.93-1.85v.21s.09.63.24.15,1.18-1.44,1.13-1.1.1.18.1.18c0,0,1.5-1.65,1.42-1.06s.22.42.22.42c0,0,1.97-1.74,1.91-1.25s.22.3.22.3c.48-.62,1.13-1.09,1.86-1.36-.06.2-.09.4-.07.61.03.3.18.21.18.21,1.56-1.44,2-1.16,2-1.16-.18.6.3.42.3.42,1.01-.91,1.3-.63,1.3-.63-.09.69.31.43.31.43.41-.45.99-.71,1.59-.7-.1.16-.08.36.04.49,2.79-1.33,4.38-.82,4.38-.82,0,0-3.56,1.24-3.78,1.85s-1.27.86-1.64.86-.28.24-.28.24c0,0,.76-.09.71.15-.04.24-1.18.67-1.7.67s-.39.21-.39.21c.95-.19.73.19.73.19-.53.58-1.28.92-2.07.92-.69.01-.46.18-.46.18.92.03.67.45.67.45-.61.73-2.06.63-2.58.63s-.36.21-.36.21c1.27-.04.89.51.89.51-.64.74-2.4.55-2.68.55-.12-.02-.22.06-.24.18,0,.02,0,.05,0,.07.86-.16.74.31.74.31-.27.64-2.26.64-2.52.64s-.13.21-.13.21c.97-.1.74.3.74.3-.27.67-2.13.6-2.43.64s-.15.25-.15.25c.63-.01.54.3.54.3-.3.52-1.76.43-2.04.43s-.24.19-.24.19c.54-.01.4.25.4.25-.39.31-.87.5-1.37.54-1.86.03-1.5.21-1.5.21l.22.18s-5.13,2.61-5.5,2.82c-.04.14.09.12.09.12.57-.46,6-2.94,6-2.94-.11.08-.1.46-.1.46.51-.43,1.15-.68,1.82-.71-.09.03-.24.48-.24.48,1.39-.71,2.04-.51,1.94-.51s-.33.45-.33.45c.52-.19,1.06-.32,1.61-.4,0,0-.67.69-.09.42.47-.17.96-.25,1.46-.23.02,0,.04.02.04.04,0,.01,0,.03-.02.03-.25.19-.87.66-.34.38.65-.17,1.34-.14,1.97.1-.09,0-.14.25-.16.42,0,.05.03.1.09.11.01,0,.03,0,.04,0,.55-.08,1.1-.08,1.65-.01.03,0,.04.03.02.09l-.16.43s0,.04.02.05c0,0,.01,0,.02,0,.55-.06,1.1-.02,1.64.12.02,0,.04.03.01.09l-.15.41s0,.04.02.05c.01,0,.02,0,.03,0,.38-.12.79-.07,1.13.13.01,0,.02.02.02.04l-.05.48s.02.04.04.04c0,0,0,0,0,0,1.16-.1,1.32.65,1.34.79,0,.02.01.03.03.03,1.84.64,2.51,1.48,2.68,1.71.01.02,0,.05-.01.06,0,0-.02,0-.02,0-1.05-.06-2.06-.41-2.92-1.01l.05.38s-.01.05-.04.05c0,0,0,0-.01,0-.49-.1-.93-.35-1.28-.71-.04-.04.14.47.17.63,0,.02-.01.04-.03.05,0,0,0,0,0,0-.5-.07-.97-.31-1.32-.68-.03-.04.04.44.04.57,0,.02-.02.04-.04.04h0c-.58-.08-1.13-.31-1.61-.65.1,0,.03.51,0,.66,0,.02-.02.04-.04.03-.68-.08-1.32-.37-1.81-.85.08.17.1.36.03.54,0,.02-.03.03-.05.03-.64-.06-1.22-.37-1.63-.87.08.03.04.47.02.6,0,.02-.02.04-.04.04-.66.02-1.29-.23-1.75-.7.08.14.13.3.14.46,0,.02-.02.04-.04.04-.56.03-1.11-.16-1.53-.55-.02-.01-.04-.01-.06,0,0,0-.01.02-.01.03-.01.15-.04.3-.08.44,0,.02-.02.03-.04.03-.5-.07-.97-.29-1.35-.63-.03-.03-.06-.01-.06.03-.06.16-.15.3-.26.43-.01.01-.03.02-.05.01-2.07-.96-5.19-.71-6.17-.59-.1.04-.05.11,0,.11,4.36.67,6.36,5.6,6.73,6.63,0,.02,0,.04-.02.05-.02,0-.03,0-.04,0-1.7-1.78-7.15-5.62-7.8-6.08-.02-.01-.04,0-.06.01,0,0,0,.02-.1.02v3.59l-.17.64h0Z"/></svg>